<svg xmlns="http://www.w3.org/2000/svg" style="display: none;">
  <defs>
    <!-- UI Navigation Icons -->
    <symbol id="icon-explore" viewBox="0 0 24 24" shape-rendering="crispEdges">
      <!-- Compass design -->
      <circle cx="12" cy="12" r="9" fill="#D2691E" stroke="#8B4513" stroke-width="1"/>
      <circle cx="12" cy="12" r="7" fill="#F4A460" stroke="#654321" stroke-width="1"/>
      <circle cx="12" cy="12" r="3" fill="#8B4513"/>
      <!-- Compass needle -->
      <polygon points="12,6 14,12 12,10 10,12" fill="#FF4444"/>
      <polygon points="12,18 10,12 12,14 14,12" fill="#4444FF"/>
      <!-- Cardinal directions -->
      <rect x="11" y="4" width="2" height="2" fill="#654321"/>
      <rect x="11" y="18" width="2" height="2" fill="#654321"/>
      <rect x="4" y="11" width="2" height="2" fill="#654321"/>
      <rect x="18" y="11" width="2" height="2" fill="#654321"/>
    </symbol>

    <symbol id="icon-player" viewBox="0 0 24 24" shape-rendering="crispEdges">
      <!-- Player character -->
      <rect x="9" y="6" width="6" height="6" fill="#FFDBAC"/>
      <rect x="10" y="4" width="4" height="3" fill="#8B4513"/>
      <rect x="8" y="12" width="8" height="8" fill="#4169E1"/>
      <rect x="7" y="14" width="2" height="6" fill="#FFDBAC"/>
      <rect x="15" y="14" width="2" height="6" fill="#FFDBAC"/>
      <rect x="6" y="20" width="3" height="2" fill="#654321"/>
      <rect x="15" y="20" width="3" height="2" fill="#654321"/>
      <!-- Face details -->
      <rect x="10" y="7" width="1" height="1" fill="#000"/>
      <rect x="13" y="7" width="1" height="1" fill="#000"/>
      <rect x="11" y="9" width="2" height="1" fill="#000"/>
    </symbol>

    <symbol id="icon-skills" viewBox="0 0 24 24" shape-rendering="crispEdges">
      <!-- Open book with skill symbols -->
      <rect x="4" y="6" width="16" height="12" fill="#8B4513"/>
      <rect x="5" y="7" width="14" height="10" fill="#F4A460"/>
      <rect x="12" y="6" width="1" height="12" fill="#654321"/>
      <!-- Left page - sword symbol -->
      <rect x="7" y="9" width="1" height="4" fill="#C0C0C0"/>
      <rect x="6" y="10" width="3" height="1" fill="#C0C0C0"/>
      <rect x="7" y="8" width="1" height="1" fill="#FFD700"/>
      <!-- Right page - magic symbol -->
      <circle cx="16" cy="11" r="2" fill="#9370DB" stroke="#4B0082" stroke-width="1"/>
      <rect x="15" y="10" width="2" height="2" fill="#DA70D6"/>
    </symbol>

    <!-- Header Icons -->
    <symbol id="icon-save" viewBox="0 0 24 24" shape-rendering="crispEdges">
      <!-- Floppy disk -->
      <rect x="5" y="4" width="14" height="16" fill="#4169E1"/>
      <rect x="6" y="5" width="12" height="14" fill="#87CEEB"/>
      <rect x="8" y="4" width="8" height="3" fill="#2F4F4F"/>
      <rect x="7" y="6" width="10" height="8" fill="#F0F8FF"/>
      <rect x="15" y="6" width="1" height="4" fill="#4169E1"/>
      <!-- Label -->
      <rect x="9" y="8" width="6" height="1" fill="#4169E1"/>
      <rect x="9" y="10" width="4" height="1" fill="#4169E1"/>
    </symbol>

    <symbol id="icon-exit" viewBox="0 0 24 24" shape-rendering="crispEdges">
      <!-- Door with exit arrow -->
      <rect x="6" y="4" width="8" height="16" fill="#8B4513"/>
      <rect x="7" y="5" width="6" height="14" fill="#D2691E"/>
      <rect x="12" y="10" width="1" height="2" fill="#FFD700"/>
      <!-- Exit arrow -->
      <rect x="16" y="11" width="4" height="1" fill="#FF4444"/>
      <polygon points="20,10 22,12 20,14" fill="#FF4444"/>
      <rect x="15" y="8" width="1" height="8" fill="#FF4444"/>
    </symbol>

    <!-- Vital Icons -->
    <symbol id="icon-heart" viewBox="0 0 24 24" shape-rendering="crispEdges">
      <!-- Pixelated heart -->
      <rect x="7" y="6" width="2" height="2" fill="#FF0000"/>
      <rect x="15" y="6" width="2" height="2" fill="#FF0000"/>
      <rect x="5" y="8" width="6" height="2" fill="#FF0000"/>
      <rect x="13" y="8" width="6" height="2" fill="#FF0000"/>
      <rect x="4" y="10" width="8" height="2" fill="#FF0000"/>
      <rect x="12" y="10" width="8" height="2" fill="#FF0000"/>
      <rect x="5" y="12" width="14" height="2" fill="#FF0000"/>
      <rect x="6" y="14" width="12" height="2" fill="#FF0000"/>
      <rect x="8" y="16" width="8" height="2" fill="#FF0000"/>
      <rect x="10" y="18" width="4" height="2" fill="#FF0000"/>
      <!-- Highlight -->
      <rect x="8" y="7" width="1" height="1" fill="#FF6666"/>
      <rect x="16" y="7" width="1" height="1" fill="#FF6666"/>
    </symbol>

    <symbol id="icon-bolt" viewBox="0 0 24 24" shape-rendering="crispEdges">
      <!-- Lightning bolt -->
      <rect x="10" y="4" width="6" height="2" fill="#FFD700"/>
      <rect x="8" y="6" width="6" height="2" fill="#FFD700"/>
      <rect x="6" y="8" width="6" height="2" fill="#FFD700"/>
      <rect x="8" y="10" width="8" height="2" fill="#FFD700"/>
      <rect x="10" y="12" width="6" height="2" fill="#FFD700"/>
      <rect x="12" y="14" width="6" height="2" fill="#FFD700"/>
      <rect x="14" y="16" width="4" height="2" fill="#FFD700"/>
      <rect x="16" y="18" width="2" height="2" fill="#FFD700"/>
      <!-- Highlight -->
      <rect x="11" y="5" width="1" height="1" fill="#FFFF99"/>
      <rect x="13" y="11" width="1" height="1" fill="#FFFF99"/>
    </symbol>

    <symbol id="icon-drop" viewBox="0 0 24 24" shape-rendering="crispEdges">
      <!-- Water drop -->
      <rect x="11" y="4" width="2" height="2" fill="#4169E1"/>
      <rect x="10" y="6" width="4" height="2" fill="#4169E1"/>
      <rect x="9" y="8" width="6" height="2" fill="#4169E1"/>
      <rect x="8" y="10" width="8" height="4" fill="#4169E1"/>
      <rect x="9" y="14" width="6" height="2" fill="#4169E1"/>
      <rect x="10" y="16" width="4" height="2" fill="#4169E1"/>
      <rect x="11" y="18" width="2" height="1" fill="#4169E1"/>
      <!-- Highlight -->
      <rect x="10" y="7" width="2" height="2" fill="#87CEEB"/>
      <rect x="9" y="11" width="2" height="2" fill="#87CEEB"/>
    </symbol>

    <!-- Equipment Icons -->
    <symbol id="icon-helmet" viewBox="0 0 24 24" shape-rendering="crispEdges">
      <!-- Leather helmet -->
      <rect x="8" y="6" width="8" height="2" fill="#8B4513"/>
      <rect x="7" y="8" width="10" height="6" fill="#A0522D"/>
      <rect x="6" y="10" width="2" height="4" fill="#8B4513"/>
      <rect x="16" y="10" width="2" height="4" fill="#8B4513"/>
      <rect x="8" y="9" width="8" height="4" fill="#D2691E"/>
      <rect x="9" y="10" width="6" height="2" fill="#CD853F"/>
      <!-- Helmet details -->
      <rect x="7" y="8" width="1" height="1" fill="#654321"/>
      <rect x="16" y="8" width="1" height="1" fill="#654321"/>
      <rect x="8" y="14" width="8" height="1" fill="#654321"/>
    </symbol>

    <symbol id="icon-chest-armor" viewBox="0 0 24 24" shape-rendering="crispEdges">
      <!-- Leather chestplate -->
      <rect x="8" y="6" width="8" height="12" fill="#A0522D"/>
      <rect x="6" y="8" width="2" height="8" fill="#8B4513"/>
      <rect x="16" y="8" width="2" height="8" fill="#8B4513"/>
      <rect x="9" y="7" width="6" height="10" fill="#D2691E"/>
      <!-- Chest details -->
      <rect x="10" y="9" width="4" height="1" fill="#8B4513"/>
      <rect x="10" y="11" width="4" height="1" fill="#8B4513"/>
      <rect x="10" y="13" width="4" height="1" fill="#8B4513"/>
      <!-- Straps -->
      <rect x="11" y="6" width="2" height="2" fill="#654321"/>
      <rect x="7" y="9" width="1" height="6" fill="#654321"/>
      <rect x="16" y="9" width="1" height="6" fill="#654321"/>
    </symbol>

    <symbol id="icon-gloves" viewBox="0 0 24 24" shape-rendering="crispEdges">
      <!-- Leather gloves -->
      <rect x="6" y="10" width="4" height="8" fill="#A0522D"/>
      <rect x="14" y="10" width="4" height="8" fill="#A0522D"/>
      <rect x="7" y="11" width="2" height="6" fill="#D2691E"/>
      <rect x="15" y="11" width="2" height="6" fill="#D2691E"/>
      <!-- Fingers -->
      <rect x="6" y="8" width="1" height="3" fill="#8B4513"/>
      <rect x="7" y="7" width="1" height="4" fill="#8B4513"/>
      <rect x="8" y="8" width="1" height="3" fill="#8B4513"/>
      <rect x="9" y="9" width="1" height="2" fill="#8B4513"/>
      <!-- Right hand -->
      <rect x="14" y="8" width="1" height="3" fill="#8B4513"/>
      <rect x="15" y="7" width="1" height="4" fill="#8B4513"/>
      <rect x="16" y="8" width="1" height="3" fill="#8B4513"/>
      <rect x="17" y="9" width="1" height="2" fill="#8B4513"/>
    </symbol>

    <symbol id="icon-pants" viewBox="0 0 24 24" shape-rendering="crispEdges">
      <!-- Leather pants -->
      <rect x="8" y="8" width="8" height="4" fill="#A0522D"/>
      <rect x="8" y="12" width="3" height="8" fill="#8B4513"/>
      <rect x="13" y="12" width="3" height="8" fill="#8B4513"/>
      <rect x="9" y="9" width="6" height="2" fill="#D2691E"/>
      <rect x="9" y="13" width="2" height="6" fill="#CD853F"/>
      <rect x="13" y="13" width="2" height="6" fill="#CD853F"/>
      <!-- Belt -->
      <rect x="8" y="8" width="8" height="1" fill="#654321"/>
      <rect x="11" y="7" width="2" height="2" fill="#8B4513"/>
    </symbol>

    <symbol id="icon-boots" viewBox="0 0 24 24" shape-rendering="crispEdges">
      <!-- Leather boots -->
      <rect x="6" y="16" width="5" height="4" fill="#8B4513"/>
      <rect x="13" y="16" width="5" height="4" fill="#8B4513"/>
      <rect x="7" y="12" width="3" height="5" fill="#A0522D"/>
      <rect x="14" y="12" width="3" height="5" fill="#A0522D"/>
      <rect x="8" y="13" width="1" height="3" fill="#D2691E"/>
      <rect x="15" y="13" width="1" height="3" fill="#D2691E"/>
      <!-- Boot details -->
      <rect x="6" y="15" width="5" height="1" fill="#654321"/>
      <rect x="13" y="15" width="5" height="1" fill="#654321"/>
      <rect x="7" y="14" width="3" height="1" fill="#654321"/>
      <rect x="14" y="14" width="3" height="1" fill="#654321"/>
    </symbol>

    <symbol id="icon-ring" viewBox="0 0 24 24" shape-rendering="crispEdges">
      <!-- Ring with gem -->
      <rect x="8" y="10" width="8" height="4" fill="#FFD700"/>
      <rect x="9" y="11" width="6" height="2" fill="#FFA500"/>
      <rect x="11" y="8" width="2" height="2" fill="#FF0000"/>
      <rect x="10" y="9" width="4" height="1" fill="#8B0000"/>
      <!-- Ring band details -->
      <rect x="8" y="12" width="1" height="1" fill="#B8860B"/>
      <rect x="15" y="12" width="1" height="1" fill="#B8860B"/>
    </symbol>

    <symbol id="icon-amulet" viewBox="0 0 24 24" shape-rendering="crispEdges">
      <!-- Amulet pendant -->
      <rect x="11" y="4" width="2" height="4" fill="#8B4513"/>
      <rect x="8" y="8" width="8" height="6" fill="#FFD700"/>
      <rect x="9" y="9" width="6" height="4" fill="#FFA500"/>
      <rect x="10" y="14" width="4" height="2" fill="#FFD700"/>
      <rect x="11" y="16" width="2" height="2" fill="#FFD700"/>
      <!-- Gem in center -->
      <rect x="11" y="10" width="2" height="2" fill="#9370DB"/>
      <rect x="10" y="11" width="4" height="1" fill="#4B0082"/>
    </symbol>

    <!-- Skill Icons -->
    <symbol id="icon-fishing" viewBox="0 0 24 24" shape-rendering="crispEdges">
      <!-- Rod -->
      <rect x="3" y="5" width="2" height="16" fill="#8B4513"/>
      <rect x="5" y="7" width="1" height="12" fill="#A0522D"/>
      <!-- Line -->
      <rect x="6" y="9" width="10" height="1" fill="#B0BEC5"/>
      <rect x="16" y="10" width="1" height="6" fill="#B0BEC5"/>
      <!-- Hook -->
      <rect x="16" y="16" width="2" height="1" fill="#ECEFF1"/>
      <rect x="17" y="17" width="1" height="2" fill="#ECEFF1"/>
      <!-- Reel -->
      <rect x="3" y="9" width="3" height="3" fill="#29B6F6"/>
      <rect x="4" y="10" width="1" height="1" fill="#E1F5FE"/>
    </symbol>

    <!-- Foraging / Leaf Icon (enhanced) -->
    <symbol id="icon-leaf" viewBox="0 0 24 24" shape-rendering="crispEdges">
      <!-- Stem -->
      <rect x="11" y="4" width="2" height="14" fill="#2E7D32"/>
      <!-- Leaf lobes -->
      <rect x="8" y="6" width="8" height="2" fill="#66BB6A"/>
      <rect x="6" y="8" width="12" height="2" fill="#4CAF50"/>
      <rect x="7" y="10" width="10" height="2" fill="#43A047"/>
      <rect x="8" y="12" width="8" height="2" fill="#388E3C"/>
      <rect x="9" y="14" width="6" height="2" fill="#2E7D32"/>
      <!-- Veins -->
      <rect x="12" y="7" width="3" height="1" fill="#1B5E20"/>
      <rect x="9" y="9" width="3" height="1" fill="#1B5E20"/>
      <rect x="12" y="11" width="3" height="1" fill="#1B5E20"/>
      <rect x="9" y="13" width="3" height="1" fill="#1B5E20"/>
    </symbol>

    <symbol id="icon-sword" viewBox="0 0 24 24" shape-rendering="crispEdges">
      <!-- Sword blade -->
      <rect x="11" y="4" width="2" height="12" fill="#C0C0C0"/>
      <rect x="10" y="6" width="4" height="1" fill="#E0E0E0"/>
      <rect x="10" y="8" width="4" height="1" fill="#E0E0E0"/>
      <rect x="10" y="10" width="4" height="1" fill="#E0E0E0"/>
      <!-- Crossguard -->
      <rect x="8" y="16" width="8" height="1" fill="#8B4513"/>
      <!-- Handle -->
      <rect x="11" y="17" width="2" height="3" fill="#654321"/>
      <!-- Pommel -->
      <rect x="10" y="20" width="4" height="2" fill="#FFD700"/>
    </symbol>

    <symbol id="icon-muscle" viewBox="0 0 24 24" shape-rendering="crispEdges">
      <!-- Flexed arm -->
      <rect x="6" y="8" width="4" height="8" fill="#FFDBAC"/>
      <rect x="10" y="6" width="4" height="4" fill="#FFDBAC"/>
      <rect x="14" y="8" width="4" height="6" fill="#FFDBAC"/>
      <!-- Muscle definition -->
      <rect x="11" y="7" width="2" height="2" fill="#F4A460"/>
      <rect x="15" y="9" width="2" height="3" fill="#F4A460"/>
      <!-- Shirt sleeve -->
      <rect x="6" y="8" width="4" height="2" fill="#4169E1"/>
    </symbol>

    <symbol id="icon-shield" viewBox="0 0 24 24" shape-rendering="crispEdges">
      <!-- Medieval shield -->
      <path d="M12 2L6 6v6c0 4 6 8 6 8s6-4 6-8V6l-6-4z" fill="#8B4513"/>
      <path d="M12 4L8 7v5c0 3 4 6 4 6s4-3 4-6V7l-4-3z" fill="#A0522D"/>
      <rect x="10" y="8" width="4" height="6" fill="#FFD700"/>
      <rect x="11" y="9" width="2" height="4" fill="#FFA500"/>
      <!-- Cross design -->
      <rect x="11" y="10" width="2" height="1" fill="#8B4513"/>
      <rect x="10" y="11" width="4" height="1" fill="#8B4513"/>
    </symbol>

    <!-- Fish Icons -->
    <symbol id="fish-minnow" viewBox="0 0 24 24" shape-rendering="crispEdges">
      <!-- Small silver fish -->
      <ellipse cx="12" cy="12" rx="6" ry="3" fill="#C0C0C0"/>
      <ellipse cx="12" cy="12" rx="4" ry="2" fill="#E0E0E0"/>
      <!-- Tail -->
      <polygon points="6,12 2,10 2,14" fill="#C0C0C0"/>
      <!-- Eye -->
      <circle cx="15" cy="11" r="1" fill="#000"/>
      <!-- Fins -->
      <polygon points="12,9 10,7 14,9" fill="#C0C0C0"/>
      <polygon points="12,15 10,17 14,15" fill="#C0C0C0"/>
    </symbol>

    <symbol id="fish-trout" viewBox="0 0 24 24" shape-rendering="crispEdges">
      <!-- Spotted trout -->
      <ellipse cx="12" cy="12" rx="7" ry="4" fill="#8FBC8F"/>
      <ellipse cx="12" cy="12" rx="5" ry="3" fill="#98FB98"/>
      <!-- Tail -->
      <polygon points="5,12 1,9 1,15" fill="#8FBC8F"/>
      <!-- Eye -->
      <circle cx="16" cy="11" r="1" fill="#000"/>
      <!-- Spots -->
      <circle cx="13" cy="10" r="0.5" fill="#006400"/>
      <circle cx="15" cy="13" r="0.5" fill="#006400"/>
      <circle cx="11" cy="14" r="0.5" fill="#006400"/>
      <!-- Fins -->
      <polygon points="12,8 9,6 15,8" fill="#8FBC8F"/>
      <polygon points="12,16 9,18 15,16" fill="#8FBC8F"/>
    </symbol>

    <symbol id="fish-bass" viewBox="0 0 24 24" shape-rendering="crispEdges">
      <!-- Large mouth bass -->
      <ellipse cx="12" cy="12" rx="8" ry="4" fill="#556B2F"/>
      <ellipse cx="12" cy="12" rx="6" ry="3" fill="#6B8E23"/>
      <!-- Tail -->
      <polygon points="4,12 0,9 0,15" fill="#556B2F"/>
      <!-- Eye -->
      <circle cx="17" cy="11" r="1" fill="#000"/>
      <!-- Stripes -->
      <rect x="10" y="10" width="1" height="4" fill="#2F4F2F"/>
      <rect x="13" y="9" width="1" height="6" fill="#2F4F2F"/>
      <rect x="16" y="10" width="1" height="4" fill="#2F4F2F"/>
      <!-- Fins -->
      <polygon points="12,8 8,5 16,8" fill="#556B2F"/>
      <polygon points="12,16 8,19 16,16" fill="#556B2F"/>
    </symbol>

    <symbol id="fish-salmon" viewBox="0 0 24 24" shape-rendering="crispEdges">
      <!-- Salmon -->
      <ellipse cx="12" cy="12" rx="8" ry="4" fill="#FA8072"/>
      <ellipse cx="12" cy="12" rx="6" ry="3" fill="#FFA07A"/>
      <!-- Tail -->
      <polygon points="4,12 0,8 0,16" fill="#FA8072"/>
      <!-- Eye -->
      <circle cx="17" cy="11" r="1" fill="#000"/>
      <!-- Belly stripe -->
      <rect x="8" y="13" width="8" height="1" fill="#FF6347"/>
      <!-- Fins -->
      <polygon points="12,8 7,5 17,8" fill="#FA8072"/>
      <polygon points="12,16 7,19 17,16" fill="#FA8072"/>
      <!-- Dorsal fin -->
      <polygon points="14,8 12,4 16,8" fill="#DC143C"/>
    </symbol>

    <symbol id="fish-goldfish" viewBox="0 0 24 24" shape-rendering="crispEdges">
      <!-- Goldfish -->
      <ellipse cx="12" cy="12" rx="6" ry="4" fill="#FFD700"/>
      <ellipse cx="12" cy="12" rx="4" ry="3" fill="#FFA500"/>
      <!-- Tail -->
      <polygon points="6,12 2,9 2,15" fill="#FFD700"/>
      <!-- Eye -->
      <circle cx="15" cy="11" r="1" fill="#000"/>
      <!-- Fins -->
      <polygon points="12,8 9,5 15,8" fill="#FF8C00"/>
      <polygon points="12,16 9,19 15,16" fill="#FF8C00"/>
    </symbol>

    <!-- Inventory Icons -->
    <symbol id="icon-bag" viewBox="0 0 24 24" shape-rendering="crispEdges">
      <!-- Leather bag -->
      <rect x="6" y="8" width="12" height="12" fill="#8B4513"/>
      <rect x="7" y="9" width="10" height="10" fill="#A0522D"/>
      <rect x="8" y="10" width="8" height="8" fill="#D2691E"/>
      <!-- Bag straps -->
      <rect x="9" y="6" width="2" height="4" fill="#654321"/>
      <rect x="13" y="6" width="2" height="4" fill="#654321"/>
      <!-- Buckle -->
      <rect x="11" y="12" width="2" height="2" fill="#FFD700"/>
      <rect x="11" y="13" width="2" height="1" fill="#B8860B"/>
    </symbol>

    <!-- Discovery/Item Icons -->
    <symbol id="icon-shell" viewBox="0 0 24 24" shape-rendering="crispEdges">
      <!-- Simple seashell -->
      <rect x="6" y="12" width="12" height="6" fill="#F5DEB3"/>
      <rect x="7" y="10" width="10" height="2" fill="#EED5A6"/>
      <rect x="8" y="8" width="8" height="2" fill="#D2B48C"/>
      <rect x="9" y="6" width="6" height="2" fill="#C2A178"/>
      <!-- Ridges -->
      <rect x="12" y="6" width="1" height="12" fill="#8B7D6B"/>
      <rect x="10" y="8" width="1" height="10" fill="#8B7D6B"/>
      <rect x="14" y="8" width="1" height="10" fill="#8B7D6B"/>
    </symbol>

    <symbol id="icon-driftwood" viewBox="0 0 24 24" shape-rendering="crispEdges">
      <!-- Driftwood log -->
      <rect x="4" y="12" width="16" height="4" fill="#8B4513"/>
      <rect x="5" y="11" width="14" height="2" fill="#A0522D"/>
      <rect x="6" y="10" width="12" height="1" fill="#D2691E"/>
      <!-- Knots -->
      <rect x="8" y="13" width="1" height="1" fill="#5D4037"/>
      <rect x="14" y="13" width="1" height="1" fill="#5D4037"/>
    </symbol>

    <symbol id="icon-seaweed" viewBox="0 0 24 24" shape-rendering="crispEdges">
      <!-- Seaweed fronds -->
      <rect x="11" y="6" width="2" height="12" fill="#2E7D32"/>
      <rect x="9" y="8" width="2" height="10" fill="#388E3C"/>
      <rect x="13" y="8" width="2" height="10" fill="#388E3C"/>
      <rect x="7" y="10" width="2" height="8" fill="#4CAF50"/>
      <rect x="15" y="10" width="2" height="8" fill="#4CAF50"/>
    </symbol>

    <symbol id="icon-coin" viewBox="0 0 24 24" shape-rendering="crispEdges">
      <!-- Gold coin -->
      <rect x="6" y="8" width="12" height="8" fill="#FFD700"/>
      <rect x="7" y="9" width="10" height="6" fill="#FFC107"/>
      <rect x="8" y="10" width="8" height="4" fill="#FFB300"/>
      <rect x="9" y="11" width="6" height="2" fill="#FFA000"/>
      <!-- Shine -->
      <rect x="12" y="9" width="1" height="1" fill="#FFF59D"/>
    </symbol>

    <symbol id="icon-treasure-chest" viewBox="0 0 24 24" shape-rendering="crispEdges">
      <!-- Treasure chest -->
      <rect x="5" y="10" width="14" height="8" fill="#8B4513"/>
      <rect x="6" y="11" width="12" height="6" fill="#A0522D"/>
      <rect x="5" y="8" width="14" height="3" fill="#6D4C41"/>
      <!-- Lock -->
      <rect x="11" y="12" width="2" height="3" fill="#FFD700"/>
      <rect x="11" y="15" width="2" height="1" fill="#B8860B"/>
    </symbol>

    <symbol id="icon-location" viewBox="0 0 24 24" shape-rendering="crispEdges">
      <!-- Map/marker -->
      <rect x="6" y="6" width="12" height="12" fill="#90CAF9"/>
      <rect x="7" y="7" width="10" height="10" fill="#E3F2FD"/>
      <!-- Marker -->
      <rect x="11" y="9" width="2" height="6" fill="#E53935"/>
      <rect x="10" y="13" width="4" height="2" fill="#E53935"/>
    </symbol>

    <!-- Clock/Time Icon -->
    <symbol id="icon-clock" viewBox="0 0 24 24" shape-rendering="crispEdges">
      <!-- Clock face -->
      <circle cx="12" cy="12" r="8" fill="#F4A460" stroke="#8B4513" stroke-width="2"/>
      <circle cx="12" cy="12" r="6" fill="#FFEFD5"/>
      <!-- Clock hands -->
      <rect x="11" y="8" width="2" height="4" fill="#654321"/>
      <rect x="12" y="12" width="3" height="1" fill="#654321"/>
      <!-- Clock numbers -->
      <rect x="11" y="6" width="2" height="1" fill="#654321"/>
      <rect x="17" y="11" width="1" height="2" fill="#654321"/>
      <rect x="11" y="17" width="2" height="1" fill="#654321"/>
      <rect x="6" y="11" width="1" height="2" fill="#654321"/>
      <!-- Center dot -->
      <circle cx="12" cy="12" r="1" fill="#654321"/>
    </symbol>
  </defs>
</svg>
